<svg width="40" height="40" viewBox="0 0 40 40" fill="none" xmlns="http://www.w3.org/2000/svg">
  <!-- Briefcase Body -->
  <path d="M10 11C10 9.89543 10.8954 9 12 9H28C29.1046 9 30 9.89543 30 11V31C30 33.2091 28.2091 35 26 35H14C11.7909 35 10 33.2091 10 31V11Z" fill="#1A5C36"/>
  <!-- Handle -->
  <path d="M15 6C15 4.89543 15.8954 4 17 4H23C24.1046 4 25 4.89543 25 6V9H15V6Z" stroke="#1A5C36" stroke-width="1.5"/>
  <!-- Dividers (Internal grid) -->
  <rect x="10" y="21.5" width="20" height="1" fill="#FFFFFF" fill-opacity="0.2"/>
  <rect x="19.5" y="9" width="1" height="26" fill="#FFFFFF" fill-opacity="0.2"/>
  
  <!-- Math Symbols -->
  <!-- Plus (Top Left) -->
  <path d="M13.5 15.5H16.5M15 14V17" stroke="white" stroke-width="1.2" stroke-linecap="round"/>
  <!-- Minus (Top Right) -->
  <path d="M23.5 15.5H26.5" stroke="white" stroke-width="1.2" stroke-linecap="round"/>
  <!-- Divide (Bottom Left) -->
  <circle cx="15" cy="26" r="0.6" fill="white"/>
  <rect x="13.5" y="27.5" width="3" height="0.8" fill="white"/>
  <circle cx="15" cy="30" r="0.6" fill="white"/>
  <!-- Multiply (Bottom Right) -->
  <path d="M23.5 26.5L26.5 29.5M26.5 26.5L23.5 29.5" stroke="white" stroke-width="1.2" stroke-linecap="round"/>
</svg>
